<svg width="61" height="38" viewBox="0 0 61 38" fill="none" xmlns="http://www.w3.org/2000/svg">
<path d="M11.9629 15.75C11.9629 15.4128 11.9128 15.112 11.8125 14.8477C11.7122 14.5742 11.5299 14.3236 11.2656 14.0957C11.0013 13.8678 10.6276 13.64 10.1445 13.4121C9.66146 13.1751 9.02799 12.9336 8.24414 12.6875C7.35091 12.3958 6.4987 12.0677 5.6875 11.7031C4.88542 11.3294 4.16992 10.8965 3.54102 10.4043C2.91211 9.91211 2.41536 9.33789 2.05078 8.68164C1.69531 8.02539 1.51758 7.25977 1.51758 6.38477C1.51758 5.53711 1.70443 4.77148 2.07812 4.08789C2.45182 3.4043 2.97591 2.82096 3.65039 2.33789C4.32487 1.8457 5.11784 1.47201 6.0293 1.2168C6.94076 0.952474 7.94336 0.820312 9.03711 0.820312C10.4954 0.820312 11.776 1.08008 12.8789 1.59961C13.9909 2.11003 14.8568 2.83008 15.4766 3.75977C16.0964 4.68034 16.4062 5.7513 16.4062 6.97266H11.9766C11.9766 6.4349 11.8626 5.96094 11.6348 5.55078C11.416 5.13151 11.0788 4.80339 10.623 4.56641C10.1764 4.32943 9.61589 4.21094 8.94141 4.21094C8.28516 4.21094 7.73372 4.3112 7.28711 4.51172C6.84961 4.70312 6.51693 4.96745 6.28906 5.30469C6.07031 5.64193 5.96094 6.01107 5.96094 6.41211C5.96094 6.73112 6.04297 7.02279 6.20703 7.28711C6.38021 7.54232 6.6263 7.78385 6.94531 8.01172C7.27344 8.23047 7.67448 8.4401 8.14844 8.64062C8.6224 8.84115 9.16471 9.03255 9.77539 9.21484C10.8418 9.55208 11.7852 9.92578 12.6055 10.3359C13.4349 10.7461 14.1322 11.2109 14.6973 11.7305C15.2624 12.25 15.6862 12.8379 15.9688 13.4941C16.2604 14.1504 16.4062 14.8932 16.4062 15.7227C16.4062 16.6068 16.2331 17.3906 15.8867 18.0742C15.5495 18.7578 15.0573 19.3411 14.4102 19.8242C13.7721 20.2982 13.0065 20.6582 12.1133 20.9043C11.2201 21.1504 10.222 21.2734 9.11914 21.2734C8.11654 21.2734 7.1276 21.1458 6.15234 20.8906C5.17708 20.6263 4.29297 20.2253 3.5 19.6875C2.71615 19.1497 2.08724 18.4661 1.61328 17.6367C1.14844 16.7982 0.916016 15.8047 0.916016 14.6562H5.37305C5.37305 15.2578 5.45964 15.7682 5.63281 16.1875C5.80599 16.5977 6.05208 16.9303 6.37109 17.1855C6.69922 17.4408 7.0957 17.623 7.56055 17.7324C8.02539 17.8418 8.54492 17.8965 9.11914 17.8965C9.78451 17.8965 10.3223 17.8053 10.7324 17.623C11.1517 17.4316 11.4616 17.1719 11.6621 16.8438C11.8626 16.5156 11.9629 16.151 11.9629 15.75ZM34.8195 17.5547V21H24.7707V17.5547H34.8195ZM26.2883 1.09375V21H21.8312V1.09375H26.2883ZM48.352 4.88086L43.2113 21H38.4535L45.8227 1.09375H48.8305L48.352 4.88086ZM52.6176 21L47.4633 4.88086L46.9301 1.09375H49.9789L57.3754 21H52.6176ZM52.3988 13.5898V17.0352H42.0219V13.5898H52.3988Z" fill="#42B983"/>
<path d="M3.71094 25.625H4.375L8.875 36.0938L13.375 25.625H14.0391L9.11719 37H8.625L3.71094 25.625ZM3.51562 25.625H4.10938L4.14844 31.7109V37H3.51562V25.625ZM13.6562 25.625H14.25V37H13.6172V31.7109L13.6562 25.625ZM23.6275 25.625V37H22.9947V25.625H23.6275ZM40.6691 25.625V37H40.0363L33.005 26.7109V37H32.3644V25.625H33.005L40.0363 35.8984V25.625H40.6691ZM52.4919 25.625V37H51.8669V25.625H52.4919ZM56.5387 25.625V26.2031H47.82V25.625H56.5387Z" fill="black"/>
<path d="M1.5 23.5L57.5 24" stroke="#BFBFBF" stroke-width="0.2" stroke-linejoin="round"/>
<path d="M21.3167 20.6909C21.1459 21.0683 21.3135 21.5126 21.6909 21.6833C22.0683 21.8541 22.5126 21.6865 22.6833 21.3091L22 21L21.3167 20.6909ZM26.2857 11.5263L26.9803 11.2435C26.8673 10.9658 26.5998 10.7822 26.3 10.7765C26.0003 10.7707 25.7259 10.944 25.6024 11.2172L26.2857 11.5263ZM28.4286 16.7895L27.7339 17.0723C27.8433 17.3408 28.0976 17.5223 28.3871 17.5383C28.6766 17.5544 28.9494 17.4021 29.0877 17.1473L28.4286 16.7895ZM37.7191 0.786934C37.6014 0.389787 37.1841 0.163228 36.7869 0.280901L30.315 2.1985C29.9179 2.31617 29.6913 2.73352 29.809 3.13066C29.9267 3.52781 30.344 3.75437 30.7412 3.63669L36.494 1.93216L38.1985 7.68495C38.3162 8.0821 38.7335 8.30866 39.1307 8.19099C39.5278 8.07331 39.7544 7.65597 39.6367 7.25882L37.7191 0.786934ZM22 21L22.6833 21.3091L26.969 11.8354L26.2857 11.5263L25.6024 11.2172L21.3167 20.6909L22 21ZM26.2857 11.5263L25.5911 11.8091L27.7339 17.0723L28.4286 16.7895L29.1232 16.5067L26.9803 11.2435L26.2857 11.5263ZM28.4286 16.7895L29.0877 17.1473L37.6591 1.35782L37 1L36.3409 0.642181L27.7694 16.4317L28.4286 16.7895Z" fill="white"/>
<path d="M21.6583 20.8454C21.573 21.0341 21.6567 21.2563 21.8454 21.3417C22.0341 21.427 22.2563 21.3433 22.3417 21.1546L22 21L21.6583 20.8454ZM26.2857 11.5263L26.633 11.3849C26.5765 11.2461 26.4427 11.1542 26.2929 11.1514C26.143 11.1485 26.0058 11.2352 25.944 11.3718L26.2857 11.5263ZM28.4286 16.7895L28.0813 16.9309C28.1359 17.0651 28.2631 17.1559 28.4078 17.1639C28.5526 17.1719 28.689 17.0958 28.7581 16.9684L28.4286 16.7895ZM37.3595 0.893467C37.3007 0.694893 37.092 0.581614 36.8935 0.640451L33.6575 1.59925C33.459 1.65809 33.3457 1.86676 33.4045 2.06533C33.4633 2.2639 33.672 2.37718 33.8706 2.31835L36.747 1.46608L37.5992 4.34248C37.6581 4.54105 37.8668 4.65433 38.0653 4.59549C38.2639 4.53666 38.3772 4.32798 38.3183 4.12941L37.3595 0.893467ZM22 21L22.3417 21.1546L26.6274 11.6809L26.2857 11.5263L25.944 11.3718L21.6583 20.8454L22 21ZM26.2857 11.5263L25.9384 11.6677L28.0813 16.9309L28.4286 16.7895L28.7759 16.6481L26.633 11.3849L26.2857 11.5263ZM28.4286 16.7895L28.7581 16.9684L37.3296 1.17891L37 1L36.6704 0.821091L28.099 16.6106L28.4286 16.7895Z" fill="black"/>
<path d="M21.6583 20.8454C21.573 21.0341 21.6567 21.2563 21.8454 21.3417C22.0341 21.427 22.2563 21.3433 22.3417 21.1546L22 21L21.6583 20.8454ZM26.2857 11.5263L26.633 11.3849C26.5765 11.2461 26.4427 11.1542 26.2929 11.1514C26.143 11.1485 26.0058 11.2352 25.944 11.3718L26.2857 11.5263ZM28.4286 16.7895L28.0813 16.9309C28.1359 17.0651 28.2631 17.1559 28.4078 17.1639C28.5526 17.1719 28.689 17.0958 28.7581 16.9684L28.4286 16.7895ZM37.3595 0.893467C37.3007 0.694893 37.092 0.581614 36.8935 0.640451L33.6575 1.59925C33.459 1.65809 33.3457 1.86676 33.4045 2.06533C33.4633 2.2639 33.672 2.37718 33.8706 2.31835L36.747 1.46608L37.5992 4.34248C37.6581 4.54105 37.8668 4.65433 38.0653 4.59549C38.2639 4.53666 38.3772 4.32798 38.3183 4.12941L37.3595 0.893467ZM22 21L22.3417 21.1546L26.6274 11.6809L26.2857 11.5263L25.944 11.3718L21.6583 20.8454L22 21ZM26.2857 11.5263L25.9384 11.6677L28.0813 16.9309L28.4286 16.7895L28.7759 16.6481L26.633 11.3849L26.2857 11.5263ZM28.4286 16.7895L28.7581 16.9684L37.3296 1.17891L37 1L36.6704 0.821091L28.099 16.6106L28.4286 16.7895Z" fill="white" fill-opacity="0.2"/>
</svg>
